#!OML:ASF F:\VICON\USERDATA\INSTALL\rory3\rory3.ASF
:FULLY-SPECIFIED
:DEGREES
651
root 0.145248 18.8627 8.57883 -397.329 -81.4929 -301.42
lowerback -9.50516 -2.79793 -6.96225
upperback -11.8149 -4.73573 -6.45195
thorax -7.37115 -2.56676 -3.08294
lowerneck -4.43448 -14.6308 -13.6894
upperneck 31.2501 -24.4374 9.35448
head 14.4134 -12.0558 1.97535
rclavicle 4.17448e-015 -1.11319e-014
rhumerus 372.419 3.59594 -363.2
rradius 51.1626
rwrist -27.5942
rhand 3.10932 13.0201
rfingers 7.12502
rthumb 28.565 -14.8177
lclavicle 4.17448e-015 -1.11319e-014
lhumerus 11.6194 7.43567 13.7456
lradius 20.0935
lwrist -35.9468
lhand -1.19086 27.9405
lfingers 7.12502
lthumb 24.4493 56.4002
rfemur -20.1637 8.86015 19.3602
rtibia 15.7134
rfoot 17.5728 -14.3621
rtoes 35.3004
lfemur -15.3781 -13.3057 9.04301
ltibia 19.2431
lfoot -67.0141 -10.9596
ltoes 49.8743
652
root 0.170777 18.8713 8.5882 -417.54 -82.5607 -281.361
lowerback -9.6912 -2.42995 -6.96559
upperback -11.8011 -4.28645 -6.78334
thorax -7.28171 -2.38267 -3.42967
lowerneck -4.32472 -14.5596 -13.036
upperneck 31.1772 -24.5343 9.4522
head 14.2861 -12.0564 1.92196
rclavicle -6.16232e-015 -3.97569e-014
rhumerus 372.015 3.19358 -363.514
rradius 50.5079
rwrist -27.1712
rhand 2.71611 13.6125
rfingers 7.12502
rthumb 28.1892 -14.2878
lclavicle -6.16232e-015 -3.97569e-014
lhumerus 11.8355 3.40429 11.5575
lradius 20.78
lwrist -32.3467
lhand -3.24883 28.7317
lfingers 7.12502
lthumb 22.4751 57.4439
rfemur -20.3051 8.93692 19.0392
rtibia 15.9172
rfoot 17.5931 -14.086
rtoes 35.4469
lfemur -14.7928 -13.4324 8.87552
ltibia 18.923
lfoot -67.2429 -10.9015
ltoes 49.7435
653
root 0.197544 18.8829 8.58779 -439.405 -82.6197 -259.402
lowerback -10.0399 -1.9168 -7.01362
upperback -11.8186 -3.64568 -7.29101
thorax -7.14275 -2.11541 -3.94172
lowerneck -3.87914 -14.8632 -11.6389
upperneck 30.5984 -25.1058 9.31114
head 13.7747 -12.2436 1.6437
rclavicle -2.72335e-014 2.06736e-014
rhumerus 370.605 3.48386 -363.205
rradius 49.9649
rwrist -27.5253
rhand 2.25001 13.3966
rfingers 7.12502
rthumb 27.7437 -14.5763
lclavicle -2.72335e-014 2.06736e-014
lhumerus 13.3347 6.79632 13.4625
lradius 20.5665
lwrist -37.4571
lhand -4.63804 28.1813
lfingers 7.12502
lthumb 21.1412 57.0486
rfemur -20.8135 9.66583 18.5867
rtibia 16.2329
rfoot 17.012 -15.2038
rtoes 38.4225
lfemur -14.5475 -13.1479 8.88547
ltibia 18.5828
lfoot -67.1181 -11.6411
ltoes 49.434
654
root 0.222092 18.8975 8.581 -457.997 -81.4957 -240.615
lowerback -10.3813 -1.72877 -7.46899
upperback -11.978 -3.4247 -7.43423
thorax -7.13138 -2.00792 -3.84891
lowerneck -4.11104 -14.5501 -11.9361
upperneck 30.8288 -24.9792 10.0058
head 14.0779 -12.1544 1.92052
rclavicle -2.18663e-014 -7.31528e-014
rhumerus 370.191 3.93791 -363.066
rradius 49.1182
rwrist -27.3156
rhand 1.30768 14.2077
rfingers 7.12502
rthumb 26.8423 -13.907
lclavicle -2.18663e-014 -7.31528e-014
lhumerus 13.7956 6.46809 12.8811
lradius 20.6157
lwrist -38.4424
lhand -5.38855 27.5997
lfingers 7.12502
lthumb 20.4201 56.546
rfemur -21.3809 11.0888 17.7444
rtibia 16.3952
rfoot 16.3766 -16.8012
rtoes 40.783
lfemur -14.5289 -12.4519 8.78881
ltibia 18.3895
lfoot -66.8703 -10.2697
ltoes 49.9999
655
root 0.248972 18.9056 8.60115 -473.444 -79.7091 -225.218
lowerback -10.5393 -1.6807 -7.46669
upperback -12.128 -3.38161 -7.11728
thorax -7.18731 -1.98495 -3.50933
lowerneck -4.67118 -14.1049 -12.3269
upperneck 31.3358 -24.3022 9.84685
head 14.3537 -11.8851 1.98421
rclavicle -3.51849e-014 5.24792e-014
rhumerus 371.047 4.28921 -363.007
rradius 48.3892
rwrist -26.7924
rhand 0.294431 14.7882
rfingers 7.12502
rthumb 25.8724 -13.4718
lclavicle -3.51849e-014 5.24792e-014
lhumerus 12.917 6.61726 11.9847
lradius 20.5984
lwrist -39.2209
lhand -6.24362 26.938
lfingers 7.12502
lthumb 19.5982 55.9701
rfemur -21.7797 8.72187 18.0481
rtibia 16.6087
rfoot 17.96 -13.5062
rtoes 38.9407
lfemur -13.9882 -11.9674 8.74105
ltibia 18.2171
lfoot -66.9321 -8.66985
ltoes 51.1469
656
root 0.282296 18.9176 8.63168 -484.815 -77.76 -214.091
lowerback -10.5577 -1.64613 -7.20453
upperback -12.0458 -3.30265 -6.61277
thorax -7.04338 -1.93626 -3.10438
lowerneck -5.12825 -13.8848 -11.8221
upperneck 31.3538 -23.6732 9.01548
head 14.1414 -11.6185 1.70461
rclavicle 1.51076e-014 0
rhumerus 372.025 4.16401 -362.856
rradius 47.7608
rwrist -26.5802
rhand -0.184926 14.6508
rfingers 7.12502
rthumb 25.4132 -13.6753
lclavicle 1.51076e-014 0
lhumerus 12.3474 8.73998 12.5347
lradius 20.17
lwrist -41.8958
lhand -7.00606 26.6754
lfingers 7.12502
lthumb 18.865 55.7806
rfemur -21.8993 9.82605 18.0426
rtibia 16.8684
rfoot 17.6321 -14.5792
rtoes 39.5725
lfemur -13.3213 -10.5983 8.89185
ltibia 18.0382
lfoot -66.3947 -8.52078
ltoes 51.7942
657
root 0.308749 18.9269 8.65838 -491.739 -75.0697 -207.73
lowerback -10.4588 -1.59771 -7.77475
upperback -11.7808 -3.16758 -6.3409
thorax -6.76038 -1.81105 -2.48674
lowerneck -5.64692 -13.4075 -12.2318
upperneck 31.5519 -23.134 9.54768
head 14.4125 -11.3528 2.01116
rclavicle -2.54444e-014 1.01778e-013
rhumerus 372.679 4.01067 -362.946
rradius 47.0094
rwrist -26.3037
rhand -0.801342 14.3162
rfingers 7.12502
rthumb 24.8226 -14.0926
lclavicle -2.54444e-014 1.01778e-013
lhumerus 11.6932 7.08811 11.5121
lradius 20.4008
lwrist -39.4038
lhand -8.02366 27.104
lfingers 7.12502
lthumb 17.8861 56.3015
rfemur -21.6408 9.54 17.8097
rtibia 17.0365
rfoot 17.9117 -13.968
rtoes 39.5813
lfemur -12.4388 -9.70313 8.32714
ltibia 18.1633
lfoot -65.6917 -10.9228
ltoes 51.2663
658
root 0.326959 18.939 8.69208 -496.48 -72.4278 -203.507
lowerback -10.213 -1.35897 -7.99477
upperback -11.7318 -2.89281 -6.39774
thorax -6.84489 -1.66778 -2.4028
lowerneck -5.63596 -13.1372 -11.7495
upperneck 31.6606 -22.9489 9.61434
head 14.3718 -11.2459 2.00753
rclavicle -2.98177e-014 -6.83819e-014
rhumerus 372.582 4.19494 -363.402
rradius 45.979
rwrist -25.6517
rhand -1.57822 15.0247
rfingers 7.12502
rthumb 24.0779 -13.4846
lclavicle -2.98177e-014 -6.83819e-014
lhumerus 11.464 5.17635 10.445
lradius 20.6779
lwrist -37.1778
lhand -9.38563 27.2275
lfingers 7.12502
lthumb 16.5752 56.5396
rfemur -21.2768 9.16634 17.5599
rtibia 16.9254
rfoot 17.9227 -13.8263
rtoes 40.278
lfemur -11.8523 -10.0034 7.90823
ltibia 18.6671
lfoot -65.4321 -13.9453
ltoes 50.1858
659
root 0.345315 18.9616 8.74469 -499.477 -70.2427 -200.535
lowerback -10.2235 -1.16667 -7.52642
upperback -11.882 -2.73337 -6.5163
thorax -7.02782 -1.64823 -2.77919
lowerneck -5.36845 -12.943 -11.3993
upperneck 31.741 -22.843 9.57237
head 14.2775 -11.2159 1.98597
rclavicle -3.3197e-014 8.90555e-014
rhumerus 372.287 4.43953 -363.96
rradius 44.7592
rwrist -25.0025
rhand -1.9892 16.61
rfingers 7.12502
rthumb 23.6838 -11.9509
lclavicle -3.3197e-014 8.90555e-014
lhumerus 11.425 4.21953 9.83665
lradius 20.9199
lwrist -36.0406
lhand -9.79775 26.9784
lfingers 7.12502
lthumb 16.1784 56.3232
rfemur -21.4809 8.39226 17.4579
rtibia 16.7994
rfoot 17.8463 -13.6833
rtoes 40.1665
lfemur -12.3009 -9.84495 7.84909
ltibia 19.3113
lfoot -65.2912 -15.757
ltoes 49.6267
660
root 0.366811 18.9861 8.7975 -501.431 -68.3056 -198.451
lowerback -10.364 -1.33213 -7.05626
upperback -12.027 -3.01276 -6.33546
thorax -7.11263 -1.83332 -2.85906
lowerneck -5.45226 -12.4615 -11.4506
upperneck 31.9822 -22.2013 9.50696
head 14.3068 -10.9695 2.08342
rclavicle -1.88845e-014 3.97569e-014
rhumerus 373.086 4.02559 -364.976
rradius 43.2204
rwrist -23.8421
rhand -1.74976 16.8748
rfingers 7.12502
rthumb 23.9134 -11.6563
lclavicle -1.88845e-014 3.97569e-014
lhumerus 10.7113 3.35627 9.13111
lradius 20.9375
lwrist -34.8088
lhand -10.5462 26.6922
lfingers 7.12502
lthumb 15.4576 56.0941
rfemur -21.8034 7.1041 17.579
rtibia 16.6207
rfoot 17.9018 -13.3117
rtoes 39.0544
lfemur -13.2889 -8.99183 7.91182
ltibia 20.0914
lfoot -64.7626 -15.7757
ltoes 49.4709
661
root 0.384284 18.9974 8.82391 -503.442 -65.9132 -196.681
lowerback -10.4031 -1.49916 -7.38862
upperback -11.978 -3.20058 -5.94413
thorax -6.99854 -1.88717 -2.26476
lowerneck -5.81534 -11.9067 -11.5562
upperneck 32.1995 -21.3997 9.5056
head 14.3787 -10.6298 2.22285
rclavicle 8.94531e-015 -6.52014e-014
rhumerus 373.967 3.79683 -365.615
rradius 42.1552
rwrist -23.1618
rhand -1.52349 15.5705
rfingers 7.12502
rthumb 24.1304 -12.9319
lclavicle 8.94531e-015 -6.52014e-014
lhumerus 9.97304 4.14618 9.2697
lradius 20.6255
lwrist -35.5815
lhand -11.518 26.0378
lfingers 7.12502
lthumb 14.5214 55.5096
rfemur -21.719 6.26157 17.6668
rtibia 16.5379
rfoot 17.4846 -13.3334
rtoes 35.6211
lfemur -13.4299 -9.02707 7.75392
ltibia 20.9294
lfoot -64.5114 -14.9123
ltoes 49.7806
662
root 0.404846 18.9928 8.86501 -505.134 -63.4699 -195.34
lowerback -10.177 -1.19395 -7.65728
upperback -11.9304 -2.83559 -6.09126
thorax -7.08053 -1.69963 -2.24839
lowerneck -5.78764 -11.8239 -10.8292
upperneck 32.2883 -21.4493 9.35306
head 14.2971 -10.6156 2.05135
rclavicle -4.01545e-014 6.52014e-014
rhumerus 372.49 5.54363 -364.981
rradius 42.1827
rwrist -24.4519
rhand -2.33981 14.4859
rfingers 7.12502
rthumb 23.3474 -14.1181
lclavicle -4.01545e-014 6.52014e-014
lhumerus 10.5329 3.4374 9.21038
lradius 20.4303
lwrist -35.1068
lhand -12.3835 25.3912
lfingers 7.12502
lthumb 13.6874 54.9211
rfemur -21.8651 4.91566 17.825
rtibia 16.966
rfoot 16.9204 -12.9041
rtoes 36.5559
lfemur -13.1694 -11.0389 7.66876
ltibia 21.2581
lfoot -65.2947 -16.7872
ltoes 47.6742
663
root 0.422218 18.9669 8.93405 -506.491 -61.5344 -193.879
lowerback -10.0537 -0.832562 -7.02607
upperback -12.1473 -2.51979 -6.52461
thorax -7.43811 -1.64003 -3.04354
lowerneck -5.55668 -11.7628 -9.84468
upperneck 32.5761 -21.712 9.2235
head 14.2628 -10.6934 1.82151
rclavicle -3.08116e-014 -3.18055e-014
rhumerus 370.805 6.12803 -365.591
rradius 41.7639
rwrist -24.1999
rhand -2.42981 14.0424
rfingers 7.12502
rthumb 23.2611 -14.5726
lclavicle -3.08116e-014 -3.18055e-014
lhumerus 11.2801 1.51144 8.33693
lradius 20.4546
lwrist -33.7517
lhand -13.1853 24.8425
lfingers 7.12502
lthumb 12.9146 54.4228
rfemur -22.7833 2.66757 18.5245
rtibia 17.8796
rfoot 16.137 -12.233
rtoes 34.2103
lfemur -13.5496 -13.4306 8.29663
ltibia 21.2352
lfoot -66.8132 -15.9632
ltoes 47.9152
664
root 0.435127 18.9086 8.91488 -508.014 -59.0415 -193.001
lowerback -9.94218 -1.03262 -8.05883
upperback -12.0132 -2.73961 -6.24288
thorax -7.31907 -1.65952 -2.17441
lowerneck -6.0915 -11.2855 -9.6838
upperneck 33.0636 -21.0931 9.04775
head 14.4691 -10.4167 1.79345
rclavicle 1.98785e-016 -7.95139e-015
rhumerus 370.812 6.69821 -366.148
rradius 41.1291
rwrist -24.0075
rhand -2.51495 13.8253
rfingers 7.12502
rthumb 23.1794 -14.8
lclavicle 1.98785e-016 -7.95139e-015
lhumerus 10.5665 0.170395 7.26225
lradius 20.4012
lwrist -32.8056
lhand -13.7687 24.3946
lfingers 7.12502
lthumb 12.3521 54.0097
rfemur -22.9778 1.75907 19.0424
rtibia 19.3057
rfoot 14.4106 -12.3065
rtoes 31.9948
lfemur -12.5315 -14.8281 8.31157
ltibia 20.9668
lfoot -67.5441 -14.6694
ltoes 49.2837
